<svg width="400" height="200" viewBox="0 0 400 200" fill="none" xmlns="http://www.w3.org/2000/svg">
<path d="M0 200C0 146.957 21.0714 96.0859 58.5786 58.5786C96.0859 21.0714 146.957 0 200 0C253.043 0 303.914 21.0714 341.421 58.5786C378.929 96.0859 400 146.957 400 200H370C370 177.675 365.603 155.569 357.06 134.944C348.516 114.318 335.994 95.5778 320.208 79.7918C288.327 47.9107 245.087 30 200 30C154.913 30 111.673 47.9107 79.7918 79.7918C47.9107 111.673 30 154.913 30 200H0Z" fill="#E9EEF4"/>
<path d="M0 200C0 162.048 10.7986 124.879 31.1344 92.8348C51.4703 60.7906 80.5039 35.194 114.844 19.0347C149.184 2.87541 187.414 -3.17951 225.067 1.57718C262.72 6.33386 298.242 21.7058 327.485 45.8975L308.362 69.0129C283.506 48.4499 253.312 35.3838 221.307 31.3406C189.302 27.2974 156.807 32.4441 127.618 46.1795C98.4283 59.9149 73.7497 81.672 56.4642 108.91C39.1788 136.147 30 167.741 30 200H0Z" fill="#C7417B"/>
<path d="M188.633 168.094V169.516L180.389 188H177.723L185.953 170.172H175.18V168.094H188.633ZM204.561 185.922V188H191.531V186.182L198.053 178.922C198.855 178.029 199.475 177.272 199.912 176.652C200.359 176.023 200.669 175.463 200.842 174.971C201.024 174.469 201.115 173.959 201.115 173.439C201.115 172.783 200.979 172.191 200.705 171.662C200.441 171.124 200.049 170.696 199.529 170.377C199.01 170.058 198.381 169.898 197.643 169.898C196.758 169.898 196.02 170.072 195.428 170.418C194.844 170.755 194.407 171.229 194.115 171.84C193.824 172.451 193.678 173.152 193.678 173.945H191.148C191.148 172.824 191.395 171.799 191.887 170.869C192.379 169.939 193.108 169.201 194.074 168.654C195.04 168.098 196.23 167.82 197.643 167.82C198.9 167.82 199.976 168.044 200.869 168.49C201.762 168.928 202.446 169.548 202.92 170.35C203.403 171.143 203.645 172.072 203.645 173.139C203.645 173.722 203.544 174.314 203.344 174.916C203.152 175.508 202.883 176.101 202.537 176.693C202.2 177.286 201.803 177.869 201.348 178.443C200.901 179.018 200.423 179.583 199.912 180.139L194.58 185.922H204.561ZM209.838 184.992V187.029C209.838 187.859 209.628 188.734 209.209 189.654C208.79 190.584 208.202 191.359 207.445 191.979L206.01 190.98C206.301 190.579 206.548 190.169 206.748 189.75C206.949 189.34 207.099 188.911 207.199 188.465C207.309 188.027 207.363 187.562 207.363 187.07V184.992H209.838ZM225.287 176.461V179.496C225.287 181.128 225.141 182.504 224.85 183.625C224.558 184.746 224.139 185.648 223.592 186.332C223.045 187.016 222.384 187.512 221.609 187.822C220.844 188.123 219.978 188.273 219.012 188.273C218.246 188.273 217.54 188.178 216.893 187.986C216.245 187.795 215.662 187.49 215.143 187.07C214.632 186.642 214.195 186.086 213.83 185.402C213.465 184.719 213.188 183.889 212.996 182.914C212.805 181.939 212.709 180.799 212.709 179.496V176.461C212.709 174.829 212.855 173.462 213.146 172.359C213.447 171.257 213.871 170.372 214.418 169.707C214.965 169.033 215.621 168.549 216.387 168.258C217.161 167.966 218.027 167.82 218.984 167.82C219.759 167.82 220.47 167.916 221.117 168.107C221.773 168.29 222.357 168.586 222.867 168.996C223.378 169.397 223.811 169.935 224.166 170.609C224.531 171.275 224.809 172.09 225 173.057C225.191 174.023 225.287 175.158 225.287 176.461ZM222.744 179.906V176.037C222.744 175.144 222.689 174.36 222.58 173.686C222.48 173.002 222.329 172.419 222.129 171.936C221.928 171.452 221.673 171.061 221.363 170.76C221.062 170.459 220.712 170.24 220.311 170.104C219.919 169.958 219.477 169.885 218.984 169.885C218.383 169.885 217.85 169.999 217.385 170.227C216.92 170.445 216.528 170.796 216.209 171.279C215.899 171.762 215.662 172.396 215.498 173.18C215.334 173.964 215.252 174.916 215.252 176.037V179.906C215.252 180.799 215.302 181.588 215.402 182.271C215.512 182.955 215.671 183.548 215.881 184.049C216.09 184.541 216.346 184.947 216.646 185.266C216.947 185.585 217.294 185.822 217.686 185.977C218.087 186.122 218.529 186.195 219.012 186.195C219.632 186.195 220.174 186.077 220.639 185.84C221.104 185.603 221.491 185.234 221.801 184.732C222.12 184.222 222.357 183.57 222.512 182.777C222.667 181.975 222.744 181.018 222.744 179.906Z" fill="#23306A"/>
<path d="M150.631 151.047V161H149.312V151.047H150.631ZM154.801 155.524V156.604H150.344V155.524H154.801ZM155.478 151.047V152.127H150.344V151.047H155.478ZM159.777 161.137C159.262 161.137 158.795 161.05 158.376 160.877C157.961 160.699 157.604 160.451 157.303 160.132C157.007 159.813 156.779 159.435 156.619 158.997C156.46 158.56 156.38 158.081 156.38 157.562V157.274C156.38 156.673 156.469 156.137 156.646 155.668C156.824 155.194 157.066 154.793 157.371 154.465C157.676 154.137 158.023 153.888 158.41 153.72C158.798 153.551 159.199 153.467 159.613 153.467C160.142 153.467 160.598 153.558 160.98 153.74C161.368 153.923 161.685 154.178 161.931 154.506C162.177 154.829 162.359 155.212 162.478 155.654C162.596 156.092 162.655 156.57 162.655 157.09V157.657H157.132V156.625H161.391V156.529C161.372 156.201 161.304 155.882 161.186 155.572C161.072 155.262 160.889 155.007 160.639 154.807C160.388 154.606 160.046 154.506 159.613 154.506C159.326 154.506 159.062 154.567 158.82 154.69C158.579 154.809 158.371 154.987 158.198 155.224C158.025 155.461 157.891 155.75 157.795 156.092C157.699 156.434 157.651 156.828 157.651 157.274V157.562C157.651 157.912 157.699 158.243 157.795 158.553C157.895 158.858 158.039 159.127 158.226 159.359C158.417 159.592 158.647 159.774 158.916 159.906C159.189 160.038 159.499 160.104 159.846 160.104C160.292 160.104 160.671 160.013 160.98 159.831C161.29 159.649 161.562 159.405 161.794 159.1L162.56 159.708C162.4 159.95 162.197 160.18 161.951 160.398C161.705 160.617 161.402 160.795 161.042 160.932C160.687 161.068 160.265 161.137 159.777 161.137ZM165.506 150.5V161H164.234V150.5H165.506ZM168.91 153.604V161H167.639V153.604H168.91ZM167.543 151.642C167.543 151.437 167.604 151.263 167.728 151.122C167.855 150.981 168.042 150.91 168.288 150.91C168.53 150.91 168.714 150.981 168.842 151.122C168.974 151.263 169.04 151.437 169.04 151.642C169.04 151.838 168.974 152.006 168.842 152.147C168.714 152.284 168.53 152.353 168.288 152.353C168.042 152.353 167.855 152.284 167.728 152.147C167.604 152.006 167.543 151.838 167.543 151.642ZM173.9 160.098C174.201 160.098 174.479 160.036 174.734 159.913C174.99 159.79 175.199 159.621 175.363 159.407C175.527 159.188 175.621 158.94 175.644 158.662H176.847C176.824 159.1 176.676 159.507 176.402 159.886C176.133 160.259 175.78 160.562 175.343 160.795C174.905 161.023 174.424 161.137 173.9 161.137C173.344 161.137 172.859 161.039 172.444 160.843C172.034 160.647 171.692 160.378 171.419 160.036C171.15 159.694 170.947 159.302 170.811 158.86C170.678 158.414 170.612 157.942 170.612 157.445V157.158C170.612 156.661 170.678 156.192 170.811 155.75C170.947 155.303 171.15 154.909 171.419 154.567C171.692 154.226 172.034 153.957 172.444 153.761C172.859 153.565 173.344 153.467 173.9 153.467C174.479 153.467 174.985 153.585 175.418 153.822C175.851 154.055 176.19 154.374 176.437 154.779C176.687 155.18 176.824 155.636 176.847 156.146H175.644C175.621 155.841 175.534 155.565 175.384 155.319C175.238 155.073 175.037 154.877 174.782 154.731C174.532 154.581 174.238 154.506 173.9 154.506C173.513 154.506 173.187 154.583 172.923 154.738C172.663 154.889 172.456 155.094 172.301 155.354C172.15 155.609 172.041 155.894 171.973 156.208C171.909 156.518 171.877 156.835 171.877 157.158V157.445C171.877 157.769 171.909 158.088 171.973 158.402C172.036 158.717 172.144 159.002 172.294 159.257C172.449 159.512 172.656 159.717 172.916 159.872C173.18 160.022 173.508 160.098 173.9 160.098ZM179.643 153.604V161H178.371V153.604H179.643ZM178.275 151.642C178.275 151.437 178.337 151.263 178.46 151.122C178.588 150.981 178.774 150.91 179.021 150.91C179.262 150.91 179.447 150.981 179.574 151.122C179.706 151.263 179.772 151.437 179.772 151.642C179.772 151.838 179.706 152.006 179.574 152.147C179.447 152.284 179.262 152.353 179.021 152.353C178.774 152.353 178.588 152.284 178.46 152.147C178.337 152.006 178.275 151.838 178.275 151.642ZM186.335 159.564V150.5H187.606V161H186.444L186.335 159.564ZM181.358 157.384V157.24C181.358 156.675 181.427 156.162 181.563 155.702C181.705 155.237 181.903 154.839 182.158 154.506C182.418 154.173 182.726 153.918 183.081 153.74C183.441 153.558 183.842 153.467 184.284 153.467C184.749 153.467 185.155 153.549 185.501 153.713C185.852 153.872 186.148 154.107 186.39 154.417C186.636 154.722 186.829 155.091 186.971 155.524C187.112 155.957 187.21 156.447 187.265 156.994V157.623C187.215 158.165 187.117 158.653 186.971 159.086C186.829 159.519 186.636 159.888 186.39 160.193C186.148 160.499 185.852 160.733 185.501 160.897C185.15 161.057 184.74 161.137 184.271 161.137C183.838 161.137 183.441 161.043 183.081 160.856C182.726 160.67 182.418 160.408 182.158 160.07C181.903 159.733 181.705 159.337 181.563 158.881C181.427 158.421 181.358 157.922 181.358 157.384ZM182.63 157.24V157.384C182.63 157.753 182.666 158.099 182.739 158.423C182.817 158.746 182.935 159.031 183.095 159.277C183.254 159.523 183.457 159.717 183.703 159.858C183.949 159.995 184.243 160.063 184.585 160.063C185.004 160.063 185.348 159.975 185.617 159.797C185.891 159.619 186.109 159.384 186.273 159.093C186.438 158.801 186.565 158.484 186.656 158.143V156.495C186.602 156.244 186.522 156.003 186.417 155.771C186.317 155.534 186.185 155.324 186.021 155.142C185.861 154.955 185.663 154.807 185.426 154.697C185.193 154.588 184.918 154.533 184.599 154.533C184.252 154.533 183.954 154.606 183.703 154.752C183.457 154.893 183.254 155.089 183.095 155.34C182.935 155.586 182.817 155.873 182.739 156.201C182.666 156.525 182.63 156.871 182.63 157.24ZM193.937 159.735V155.928C193.937 155.636 193.877 155.383 193.759 155.169C193.645 154.95 193.472 154.782 193.239 154.663C193.007 154.545 192.72 154.485 192.378 154.485C192.059 154.485 191.779 154.54 191.537 154.649C191.3 154.759 191.113 154.902 190.977 155.08C190.844 155.258 190.778 155.449 190.778 155.654H189.514C189.514 155.39 189.582 155.128 189.719 154.868C189.855 154.608 190.051 154.374 190.307 154.164C190.566 153.95 190.876 153.781 191.236 153.658C191.601 153.531 192.007 153.467 192.453 153.467C192.991 153.467 193.465 153.558 193.875 153.74C194.29 153.923 194.613 154.198 194.846 154.567C195.083 154.932 195.201 155.39 195.201 155.941V159.387C195.201 159.633 195.222 159.895 195.263 160.173C195.308 160.451 195.374 160.69 195.461 160.891V161H194.142C194.078 160.854 194.028 160.66 193.991 160.419C193.955 160.173 193.937 159.945 193.937 159.735ZM194.155 156.516L194.169 157.404H192.891C192.531 157.404 192.209 157.434 191.927 157.493C191.644 157.548 191.407 157.632 191.216 157.746C191.024 157.86 190.879 158.004 190.778 158.177C190.678 158.345 190.628 158.544 190.628 158.771C190.628 159.004 190.68 159.216 190.785 159.407C190.89 159.599 191.047 159.751 191.257 159.865C191.471 159.975 191.733 160.029 192.043 160.029C192.43 160.029 192.772 159.947 193.068 159.783C193.365 159.619 193.599 159.419 193.772 159.182C193.95 158.945 194.046 158.715 194.06 158.491L194.6 159.1C194.568 159.291 194.481 159.503 194.34 159.735C194.199 159.968 194.009 160.191 193.772 160.405C193.54 160.615 193.262 160.79 192.938 160.932C192.619 161.068 192.259 161.137 191.858 161.137C191.357 161.137 190.917 161.039 190.539 160.843C190.165 160.647 189.874 160.385 189.664 160.057C189.459 159.724 189.356 159.353 189.356 158.942C189.356 158.546 189.434 158.197 189.589 157.896C189.744 157.591 189.967 157.338 190.259 157.138C190.55 156.933 190.901 156.778 191.312 156.673C191.722 156.568 192.18 156.516 192.686 156.516H194.155ZM201.853 159.564V150.5H203.124V161H201.962L201.853 159.564ZM196.876 157.384V157.24C196.876 156.675 196.944 156.162 197.081 155.702C197.222 155.237 197.421 154.839 197.676 154.506C197.936 154.173 198.243 153.918 198.599 153.74C198.959 153.558 199.36 153.467 199.802 153.467C200.267 153.467 200.672 153.549 201.019 153.713C201.369 153.872 201.666 154.107 201.907 154.417C202.153 154.722 202.347 155.091 202.488 155.524C202.63 155.957 202.728 156.447 202.782 156.994V157.623C202.732 158.165 202.634 158.653 202.488 159.086C202.347 159.519 202.153 159.888 201.907 160.193C201.666 160.499 201.369 160.733 201.019 160.897C200.668 161.057 200.257 161.137 199.788 161.137C199.355 161.137 198.959 161.043 198.599 160.856C198.243 160.67 197.936 160.408 197.676 160.07C197.421 159.733 197.222 159.337 197.081 158.881C196.944 158.421 196.876 157.922 196.876 157.384ZM198.147 157.24V157.384C198.147 157.753 198.184 158.099 198.257 158.423C198.334 158.746 198.453 159.031 198.612 159.277C198.772 159.523 198.975 159.717 199.221 159.858C199.467 159.995 199.761 160.063 200.103 160.063C200.522 160.063 200.866 159.975 201.135 159.797C201.408 159.619 201.627 159.384 201.791 159.093C201.955 158.801 202.083 158.484 202.174 158.143V156.495C202.119 156.244 202.039 156.003 201.935 155.771C201.834 155.534 201.702 155.324 201.538 155.142C201.379 154.955 201.18 154.807 200.943 154.697C200.711 154.588 200.435 154.533 200.116 154.533C199.77 154.533 199.471 154.606 199.221 154.752C198.975 154.893 198.772 155.089 198.612 155.34C198.453 155.586 198.334 155.873 198.257 156.201C198.184 156.525 198.147 156.871 198.147 157.24ZM208.162 161.137C207.647 161.137 207.18 161.05 206.761 160.877C206.346 160.699 205.988 160.451 205.688 160.132C205.391 159.813 205.163 159.435 205.004 158.997C204.844 158.56 204.765 158.081 204.765 157.562V157.274C204.765 156.673 204.854 156.137 205.031 155.668C205.209 155.194 205.451 154.793 205.756 154.465C206.061 154.137 206.408 153.888 206.795 153.72C207.182 153.551 207.583 153.467 207.998 153.467C208.527 153.467 208.982 153.558 209.365 153.74C209.753 153.923 210.069 154.178 210.315 154.506C210.562 154.829 210.744 155.212 210.862 155.654C210.981 156.092 211.04 156.57 211.04 157.09V157.657H205.517V156.625H209.775V156.529C209.757 156.201 209.689 155.882 209.57 155.572C209.456 155.262 209.274 155.007 209.023 154.807C208.773 154.606 208.431 154.506 207.998 154.506C207.711 154.506 207.447 154.567 207.205 154.69C206.964 154.809 206.756 154.987 206.583 155.224C206.41 155.461 206.275 155.75 206.18 156.092C206.084 156.434 206.036 156.828 206.036 157.274V157.562C206.036 157.912 206.084 158.243 206.18 158.553C206.28 158.858 206.424 159.127 206.61 159.359C206.802 159.592 207.032 159.774 207.301 159.906C207.574 160.038 207.884 160.104 208.23 160.104C208.677 160.104 209.055 160.013 209.365 159.831C209.675 159.649 209.946 159.405 210.179 159.1L210.944 159.708C210.785 159.95 210.582 160.18 210.336 160.398C210.09 160.617 209.787 160.795 209.427 160.932C209.071 161.068 208.65 161.137 208.162 161.137ZM215.941 157.021V156.953C215.941 155.96 216.053 155.062 216.276 154.26C216.5 153.453 216.785 152.747 217.131 152.141C217.477 151.535 217.842 151.033 218.225 150.637C218.607 150.236 218.961 149.946 219.284 149.769L219.551 150.603C219.282 150.808 219.008 151.09 218.73 151.45C218.457 151.81 218.204 152.252 217.972 152.776C217.744 153.3 217.559 153.909 217.418 154.602C217.277 155.294 217.206 156.074 217.206 156.939V157.035C217.206 157.901 217.277 158.683 217.418 159.38C217.559 160.073 217.744 160.683 217.972 161.212C218.204 161.741 218.457 162.189 218.73 162.559C219.008 162.932 219.282 163.229 219.551 163.447L219.284 164.213C218.961 164.035 218.607 163.746 218.225 163.345C217.842 162.948 217.477 162.447 217.131 161.841C216.785 161.239 216.5 160.535 216.276 159.729C216.053 158.922 215.941 158.02 215.941 157.021ZM228.636 151.047V161H227.31L222.299 153.323V161H220.979V151.047H222.299L227.33 158.744V151.047H228.636ZM234.645 157.097H231.985V156.023H234.645C235.16 156.023 235.576 155.941 235.896 155.777C236.215 155.613 236.447 155.385 236.593 155.094C236.743 154.802 236.818 154.469 236.818 154.096C236.818 153.754 236.743 153.433 236.593 153.132C236.447 152.831 236.215 152.59 235.896 152.407C235.576 152.22 235.16 152.127 234.645 152.127H232.293V161H230.974V151.047H234.645C235.396 151.047 236.032 151.177 236.552 151.437C237.071 151.696 237.465 152.056 237.734 152.517C238.003 152.972 238.138 153.494 238.138 154.082C238.138 154.72 238.003 155.265 237.734 155.716C237.465 156.167 237.071 156.511 236.552 156.748C236.032 156.98 235.396 157.097 234.645 157.097ZM245.11 158.484C245.11 158.252 245.074 158.047 245.001 157.869C244.933 157.687 244.81 157.523 244.632 157.377C244.459 157.231 244.217 157.092 243.907 156.96C243.602 156.828 243.215 156.693 242.745 156.557C242.253 156.411 241.809 156.249 241.412 156.071C241.016 155.889 240.676 155.682 240.394 155.449C240.111 155.217 239.895 154.95 239.744 154.649C239.594 154.349 239.519 154.005 239.519 153.617C239.519 153.23 239.598 152.872 239.758 152.544C239.917 152.216 240.145 151.931 240.441 151.689C240.742 151.443 241.1 151.252 241.515 151.115C241.929 150.979 242.392 150.91 242.902 150.91C243.65 150.91 244.283 151.054 244.803 151.341C245.327 151.623 245.726 151.995 245.999 152.455C246.272 152.911 246.409 153.398 246.409 153.918H245.097C245.097 153.544 245.017 153.214 244.857 152.927C244.698 152.635 244.456 152.407 244.133 152.243C243.809 152.075 243.399 151.99 242.902 151.99C242.433 151.99 242.046 152.061 241.74 152.202C241.435 152.343 241.207 152.535 241.057 152.776C240.911 153.018 240.838 153.294 240.838 153.604C240.838 153.813 240.881 154.005 240.968 154.178C241.059 154.346 241.198 154.504 241.385 154.649C241.576 154.795 241.818 154.93 242.109 155.053C242.406 155.176 242.759 155.294 243.169 155.408C243.734 155.568 244.222 155.745 244.632 155.941C245.042 156.137 245.379 156.358 245.644 156.604C245.912 156.846 246.111 157.122 246.238 157.432C246.37 157.737 246.437 158.083 246.437 158.471C246.437 158.876 246.354 159.243 246.19 159.571C246.026 159.899 245.792 160.18 245.486 160.412C245.181 160.645 244.814 160.825 244.386 160.952C243.962 161.075 243.488 161.137 242.964 161.137C242.504 161.137 242.05 161.073 241.604 160.945C241.161 160.818 240.758 160.626 240.394 160.371C240.034 160.116 239.744 159.801 239.525 159.428C239.311 159.049 239.204 158.612 239.204 158.115H240.517C240.517 158.457 240.583 158.751 240.715 158.997C240.847 159.239 241.027 159.439 241.255 159.599C241.487 159.758 241.749 159.877 242.041 159.954C242.337 160.027 242.645 160.063 242.964 160.063C243.424 160.063 243.814 160 244.133 159.872C244.452 159.744 244.693 159.562 244.857 159.325C245.026 159.088 245.11 158.808 245.11 158.484ZM250.839 156.953V157.021C250.839 158.02 250.727 158.922 250.504 159.729C250.281 160.535 249.996 161.239 249.649 161.841C249.303 162.447 248.938 162.948 248.556 163.345C248.173 163.746 247.82 164.035 247.496 164.213L247.229 163.447C247.498 163.242 247.77 162.955 248.043 162.586C248.316 162.221 248.569 161.77 248.802 161.232C249.034 160.699 249.221 160.084 249.362 159.387C249.504 158.685 249.574 157.901 249.574 157.035V156.939C249.574 156.074 249.499 155.292 249.349 154.595C249.198 153.893 249.002 153.275 248.761 152.742C248.524 152.209 248.269 151.76 247.995 151.396C247.726 151.026 247.471 150.742 247.229 150.541L247.496 149.769C247.82 149.946 248.173 150.236 248.556 150.637C248.938 151.033 249.303 151.535 249.649 152.141C249.996 152.747 250.281 153.453 250.504 154.26C250.727 155.062 250.839 155.96 250.839 156.953Z" fill="#23306A"/>
</svg>
