<svg width="400" height="68" viewBox="0 0 400 68" fill="none" xmlns="http://www.w3.org/2000/svg">
<path d="M30.8558 3.38083C30.8558 1.51371 32.3741 -0.0190611 34.23 0.185063C41.1724 0.948612 47.6885 4.05192 52.6742 9.03759C58.4608 14.8242 61.7117 22.6725 61.7117 30.8559C61.7117 39.0394 58.4608 46.8877 52.6742 52.6743C47.6885 57.66 41.1724 60.7633 34.23 61.5268C32.3741 61.731 30.8558 60.1982 30.8558 58.3311L30.8558 40.8567C30.8558 38.9896 32.4627 37.5439 34.0916 36.6313C34.6167 36.3371 35.1037 35.9702 35.5369 35.537C36.7784 34.2955 37.4759 32.6117 37.4758 30.856C37.4758 29.1002 36.7784 27.4164 35.5369 26.1749C35.1037 25.7417 34.6167 25.3748 34.0916 25.0806C32.4627 24.168 30.8558 22.7223 30.8558 20.8552L30.8558 3.38083Z" fill="#ABC5EF"/>
<path d="M47.0766 19.0748C48.8962 18.2653 49.7387 16.1111 48.6349 14.4534C46.5981 11.3944 43.7939 8.8947 40.4765 7.22104C36.0794 5.00262 31.0507 4.37184 26.2418 5.43549C21.433 6.49914 17.1394 9.19186 14.088 13.0578C11.786 15.9744 10.2976 19.4236 9.74086 23.0562C9.43916 25.0247 11.1116 26.6227 13.1028 26.5894C15.0941 26.556 16.6357 24.89 17.1055 22.9547C17.5825 20.9895 18.4788 19.1353 19.749 17.526C21.7702 14.9653 24.6141 13.1817 27.7994 12.4772C30.9846 11.7727 34.3155 12.1905 37.2281 13.6599C39.0585 14.5834 40.6531 15.8866 41.9145 17.4673C43.1566 19.024 45.2571 19.8844 47.0766 19.0748Z" fill="#B84B7A"/>
<rect x="9.49438" y="29.3519" width="7.18675" height="18.3005" rx="3.59337" fill="#B84B7A"/>
<rect x="9.49438" y="35.7337" width="7.18675" height="18.3005" rx="3.59337" fill="#B84B7A"/>
<rect width="7.18675" height="22.6611" rx="3.59337" transform="matrix(-1.31134e-07 -1 -1 1.31134e-07 35.5894 49.7932)" fill="#B84B7A"/>
<rect width="7.18675" height="7.50495" rx="3.59337" transform="matrix(-1.31134e-07 -1 -1 1.31134e-07 13.0696 49.7932)" fill="#B84B7A"/>
<path d="M92.3903 32.3707H109.521V38.9988H92.3903V32.3707ZM93.0021 52H84.7425V16.3104H111.714V22.9385H93.0021V52ZM116.744 52V24.57H124.698V52H116.744ZM120.721 20.7461C119.26 20.7461 118.07 20.3212 117.152 19.4715C116.235 18.6217 115.776 17.568 115.776 16.3104C115.776 15.0528 116.235 13.9991 117.152 13.1493C118.07 12.2996 119.26 11.8747 120.721 11.8747C122.183 11.8747 123.373 12.2826 124.29 13.0983C125.208 13.8801 125.667 14.8998 125.667 16.1574C125.667 17.483 125.208 18.5877 124.29 19.4715C123.407 20.3212 122.217 20.7461 120.721 20.7461ZM144.979 62.299C142.396 62.299 139.898 61.9761 137.484 61.3303C135.105 60.7185 133.117 59.7837 131.519 58.5261L134.68 52.8158C135.836 53.7675 137.297 54.5153 139.065 55.0591C140.866 55.6369 142.634 55.9259 144.367 55.9259C147.188 55.9259 149.228 55.297 150.485 54.0394C151.777 52.7818 152.423 50.9123 152.423 48.431V44.3012L152.933 37.4182L152.831 30.4843V24.57H160.377V47.4113C160.377 52.5099 159.051 56.2658 156.4 58.6791C153.749 61.0924 149.942 62.299 144.979 62.299ZM143.755 50.6744C141.206 50.6744 138.895 50.1305 136.821 49.0429C134.782 47.9212 133.134 46.3746 131.876 44.4032C130.652 42.3978 130.04 40.0695 130.04 37.4182C130.04 34.733 130.652 32.4047 131.876 30.4333C133.134 28.4279 134.782 26.8813 136.821 25.7936C138.895 24.7059 141.206 24.1621 143.755 24.1621C146.067 24.1621 148.106 24.638 149.874 25.5897C151.641 26.5074 153.018 27.952 154.003 29.9234C154.989 31.8609 155.482 34.3591 155.482 37.4182C155.482 40.4434 154.989 42.9416 154.003 44.9131C153.018 46.8505 151.641 48.2951 149.874 49.2468C148.106 50.1985 146.067 50.6744 143.755 50.6744ZM145.336 44.1483C146.73 44.1483 147.97 43.8764 149.058 43.3325C150.146 42.7547 150.995 41.9559 151.607 40.9362C152.219 39.9165 152.525 38.7439 152.525 37.4182C152.525 36.0586 152.219 34.886 151.607 33.9003C150.995 32.8806 150.146 32.0988 149.058 31.555C147.97 30.9771 146.73 30.6882 145.336 30.6882C143.942 30.6882 142.702 30.9771 141.614 31.555C140.526 32.0988 139.66 32.8806 139.014 33.9003C138.402 34.886 138.096 36.0586 138.096 37.4182C138.096 38.7439 138.402 39.9165 139.014 40.9362C139.66 41.9559 140.526 42.7547 141.614 43.3325C142.702 43.8764 143.942 44.1483 145.336 44.1483ZM202.908 24.1621C205.084 24.1621 207.004 24.604 208.67 25.4877C210.369 26.3375 211.695 27.6631 212.646 29.4646C213.632 31.232 214.125 33.5094 214.125 36.2966V52H206.171V37.5202C206.171 35.3109 205.712 33.6793 204.795 32.6256C203.877 31.5719 202.585 31.0451 200.92 31.0451C199.764 31.0451 198.727 31.317 197.81 31.8609C196.892 32.3707 196.178 33.1525 195.668 34.2062C195.158 35.2599 194.904 36.6025 194.904 38.234V52H186.95V37.5202C186.95 35.3109 186.491 33.6793 185.573 32.6256C184.689 31.5719 183.415 31.0451 181.749 31.0451C180.594 31.0451 179.557 31.317 178.639 31.8609C177.722 32.3707 177.008 33.1525 176.498 34.2062C175.988 35.2599 175.733 36.6025 175.733 38.234V52H167.779V24.57H175.376V32.0648L173.949 29.8724C174.9 28.003 176.243 26.5924 177.976 25.6407C179.744 24.655 181.749 24.1621 183.993 24.1621C186.508 24.1621 188.7 24.8079 190.57 26.0995C192.473 27.3572 193.731 29.2946 194.343 31.9118L191.538 31.1471C192.456 29.0057 193.918 27.3062 195.923 26.0486C197.963 24.7909 200.291 24.1621 202.908 24.1621ZM238.079 52V46.6466L237.569 45.4739V35.8887C237.569 34.1892 237.042 32.8636 235.989 31.9118C234.969 30.9601 233.389 30.4843 231.247 30.4843C229.786 30.4843 228.341 30.7222 226.913 31.1981C225.52 31.6399 224.33 32.2517 223.344 33.0335L220.489 27.4761C221.985 26.4224 223.786 25.6067 225.894 25.0288C228.001 24.451 230.142 24.1621 232.318 24.1621C236.499 24.1621 239.745 25.1478 242.056 27.1192C244.367 29.0907 245.523 32.1668 245.523 36.3476V52H238.079ZM229.718 52.4079C227.576 52.4079 225.741 52.051 224.211 51.3372C222.682 50.5894 221.509 49.5867 220.693 48.3291C219.877 47.0714 219.47 45.6608 219.47 44.0973C219.47 42.4658 219.86 41.0382 220.642 39.8145C221.458 38.5909 222.733 37.6392 224.466 36.9594C226.2 36.2456 228.46 35.8887 231.247 35.8887H238.538V40.5283H232.114C230.244 40.5283 228.953 40.8343 228.239 41.4461C227.559 42.0579 227.219 42.8227 227.219 43.7404C227.219 44.7601 227.61 45.5759 228.392 46.1877C229.208 46.7655 230.312 47.0544 231.706 47.0544C233.032 47.0544 234.221 46.7485 235.275 46.1367C236.329 45.4909 237.093 44.5562 237.569 43.3325L238.793 47.0035C238.215 48.7709 237.161 50.1135 235.632 51.0313C234.102 51.949 232.131 52.4079 229.718 52.4079ZM267.721 52V16.3104H283.935C287.81 16.3104 291.226 17.0582 294.183 18.5537C297.14 20.0153 299.451 22.0717 301.117 24.7229C302.782 27.3742 303.615 30.5183 303.615 34.1552C303.615 37.7581 302.782 40.9022 301.117 43.5874C299.451 46.2387 297.14 48.3121 294.183 49.8076C291.226 51.2692 287.81 52 283.935 52H267.721ZM275.981 45.219H283.527C285.906 45.219 287.963 44.7771 289.696 43.8934C291.464 42.9756 292.823 41.684 293.775 40.0185C294.761 38.353 295.253 36.3985 295.253 34.1552C295.253 31.8779 294.761 29.9234 293.775 28.2919C292.823 26.6264 291.464 25.3518 289.696 24.468C287.963 23.5503 285.906 23.0914 283.527 23.0914H275.981V45.219ZM326.108 52V46.6466L325.598 45.4739V35.8887C325.598 34.1892 325.072 32.8636 324.018 31.9118C322.998 30.9601 321.418 30.4843 319.276 30.4843C317.815 30.4843 316.37 30.7222 314.942 31.1981C313.549 31.6399 312.359 32.2517 311.374 33.0335L308.518 27.4761C310.014 26.4224 311.815 25.6067 313.923 25.0288C316.03 24.451 318.172 24.1621 320.347 24.1621C324.528 24.1621 327.774 25.1478 330.085 27.1192C332.396 29.0907 333.552 32.1668 333.552 36.3476V52H326.108ZM317.747 52.4079C315.605 52.4079 313.77 52.051 312.24 51.3372C310.711 50.5894 309.538 49.5867 308.722 48.3291C307.907 47.0714 307.499 45.6608 307.499 44.0973C307.499 42.4658 307.89 41.0382 308.671 39.8145C309.487 38.5909 310.762 37.6392 312.495 36.9594C314.229 36.2456 316.489 35.8887 319.276 35.8887H326.567V40.5283H320.143C318.274 40.5283 316.982 40.8343 316.268 41.4461C315.588 42.0579 315.248 42.8227 315.248 43.7404C315.248 44.7601 315.639 45.5759 316.421 46.1877C317.237 46.7655 318.341 47.0544 319.735 47.0544C321.061 47.0544 322.25 46.7485 323.304 46.1367C324.358 45.4909 325.123 44.5562 325.598 43.3325L326.822 47.0035C326.244 48.7709 325.19 50.1135 323.661 51.0313C322.131 51.949 320.16 52.4079 317.747 52.4079ZM349.979 52.4079C347.634 52.4079 345.373 52.136 343.198 51.5921C341.056 51.0143 339.357 50.3005 338.099 49.4507L340.751 43.7404C342.008 44.5222 343.487 45.168 345.186 45.6778C346.92 46.1537 348.619 46.3916 350.285 46.3916C352.12 46.3916 353.412 46.1707 354.16 45.7288C354.941 45.287 355.332 44.6751 355.332 43.8934C355.332 43.2475 355.026 42.7717 354.415 42.4658C353.837 42.1259 353.055 41.8709 352.069 41.701C351.084 41.531 349.996 41.3611 348.806 41.1911C347.651 41.0212 346.478 40.8003 345.288 40.5283C344.099 40.2224 343.011 39.7806 342.025 39.2027C341.039 38.6249 340.241 37.8431 339.629 36.8574C339.051 35.8717 338.762 34.5971 338.762 33.0335C338.762 31.3 339.255 29.7705 340.241 28.4449C341.26 27.1192 342.722 26.0825 344.625 25.3348C346.529 24.553 348.806 24.1621 351.457 24.1621C353.327 24.1621 355.23 24.366 357.168 24.7739C359.105 25.1818 360.72 25.7766 362.011 26.5584L359.36 32.2178C358.034 31.436 356.692 30.9091 355.332 30.6372C354.007 30.3313 352.715 30.1784 351.457 30.1784C349.69 30.1784 348.398 30.4163 347.583 30.8921C346.767 31.368 346.359 31.9798 346.359 32.7276C346.359 33.4074 346.648 33.9173 347.226 34.2572C347.837 34.5971 348.636 34.869 349.622 35.0729C350.608 35.2769 351.678 35.4638 352.834 35.6338C354.024 35.7697 355.213 35.9907 356.403 36.2966C357.593 36.6025 358.663 37.0444 359.615 37.6222C360.601 38.166 361.4 38.9308 362.011 39.9165C362.623 40.8682 362.929 42.1259 362.929 43.6894C362.929 45.3889 362.419 46.9015 361.4 48.2271C360.38 49.5187 358.901 50.5384 356.964 51.2862C355.06 52.034 352.732 52.4079 349.979 52.4079ZM384.509 24.1621C386.684 24.1621 388.621 24.604 390.321 25.4877C392.054 26.3375 393.414 27.6631 394.4 29.4646C395.385 31.232 395.878 33.5094 395.878 36.2966V52H387.925V37.5202C387.925 35.3109 387.432 33.6793 386.446 32.6256C385.494 31.5719 384.135 31.0451 382.367 31.0451C381.11 31.0451 379.971 31.317 378.951 31.8609C377.965 32.3707 377.184 33.1695 376.606 34.2572C376.062 35.3448 375.79 36.7384 375.79 38.4379V52H367.836V14.169H375.79V32.1668L374.006 29.8724C374.991 28.037 376.402 26.6264 378.237 25.6407C380.073 24.655 382.163 24.1621 384.509 24.1621Z" fill="#B84B7A"/>
</svg>
